<?xml version="1.0" encoding="UTF-8"?>
<svg id="logosandtypes_com" data-name="logosandtypes com" xmlns="http://www.w3.org/2000/svg" viewBox="0 0 150 150">
  <defs>
    <style>
      .cls-1 {
        fill: #f4f9f9;
      }

      .cls-2 {
        fill: none;
      }
    </style>
  </defs>
  <path class="cls-2" d="M0,0H150V150H0V0Z"/>
  <path d="M121.74,120.25c4.48,7.45,8.13,9.92,15.6,10.81v7.45h-36.84l-34.51-57.6h-8.62v37.75c0,10.11,2.5,11.51,13.12,12.4v7.45H14.87v-7.45c10.62-.89,13.12-2.31,13.12-12.4V34.31c0-10.27-2.17-11.51-13.12-12.4v-7.45h57.24c34.51,0,52.54,7.26,52.54,32.78,0,19.31-9.39,28.53-28.3,31.71l25.39,41.3Z"/>
  <path class="cls-1" d="M94.29,27.75c-2.93,5.38,1.59,30.76,1.59,30.76,.06,1.34-.85,2.52-2.17,2.81,0,0-27.66,.12-36.8,7.72L94.29,27.75Z"/>
</svg>