<?xml version="1.0" encoding="UTF-8"?>
<svg id="Calque_1" xmlns="http://www.w3.org/2000/svg" version="1.1" viewBox="0 0 988 402">
  <!-- Generator: Adobe Illustrator 29.2.1, SVG Export Plug-In . SVG Version: 2.1.0 Build 116)  -->
  <defs>
    <style>
      .st0 {
        fill: #17314a;
      }
    </style>
  </defs>
  <path class="st0" d="M659.16,317.06c8.3,0,15.29-3.6,20.97-10.8,5.67-7.2,8.51-14.95,8.51-23.25v-3.05h-5.59c-28.97,0-43.46,6.78-43.46,20.33,0,4.57,1.69,8.52,5.08,11.82,3.39,3.3,8.21,4.96,14.49,4.96Z"/>
  <path class="st0" d="M875.54,238.79c-4.66-4.91-10.38-7.37-17.15-7.37-8.3,0-15.21,2.33-20.71,6.99-5.51,4.66-9.19,11.05-11.05,19.19h56.16c-.17-7.62-2.59-13.89-7.24-18.81Z"/>
  <path class="st0" d="M437.6,384.09l395.47.85c.1,0,.19,0,.28,0,.11,0,.21,0,.32,0h4.15s.03-.12.03-.12c86.72-1.29,133.6-39.38,133.6-117.87,0-70-56.72-127.07-128.44-131.85-.94,20.27-12.09,37.05-27.14,42.21,10.61-8.21,17.7-22.89,17.7-39.7,0-6.18-.91-11.83-2.58-17.11-21.88-58.42-78.07-103.46-171.28-103.46-99.27,0-179.91,76.74-181.81,159.83-8.01-1.41-16.32-2.16-24.82-2.16-67.73,0-122.63,47.07-122.63,105.11s39.42,104.26,107.16,104.26ZM810.87,225.45c12.2-12.62,28.04-18.93,47.52-18.93,17.96,0,32.02,5.81,42.19,17.41,10.16,11.61,15.25,26.3,15.25,44.09l-.76,11.94h-89.45c1.18,11.01,5.42,19.57,12.71,25.67,7.28,6.1,16.01,9.15,26.18,9.15,6.1,0,12.2-1.23,18.3-3.68,6.1-2.46,10.59-4.87,13.47-7.25l4.57-3.56,13.47,22.36c-.51.51-1.27,1.23-2.29,2.16-1.02.93-3.26,2.5-6.74,4.7-3.47,2.2-7.08,4.15-10.8,5.84-3.73,1.7-8.52,3.26-14.36,4.7-5.84,1.44-11.82,2.16-17.92,2.16-20.84,0-37.66-6.56-50.44-19.69-12.8-13.13-19.19-29.18-19.19-48.16,0-19.99,6.1-36.3,18.3-48.92ZM730.31,158.74h30.75c11.52,0,17.28,5.76,17.28,17.28v130.37c0,3.73,1.86,5.59,5.59,5.59h9.91v27.19h-30.5c-6.1,0-10.51-1.35-13.22-4.07-2.71-2.71-4.07-7.11-4.07-13.21v-130.12c0-3.72-1.86-5.59-5.59-5.59h-10.17v-27.45ZM611.13,284.54c2.71-5.08,6.48-9.15,11.31-12.2,4.83-3.05,9.87-5.63,15.12-7.75,5.25-2.12,11.05-3.6,17.41-4.45,6.35-.85,11.69-1.44,16.01-1.78,4.32-.34,8.68-.51,13.09-.51h4.07v-1.02c0-9.15-1.91-15.67-5.72-19.57-3.81-3.9-9.87-5.85-18.17-5.85-4.07,0-7.96.64-11.69,1.91-3.73,1.27-5.59,3.52-5.59,6.74v6.86h-29.99v-13.72c0-5.59,1.74-10.33,5.21-14.23,3.47-3.9,8.04-6.65,13.72-8.26,5.67-1.61,10.76-2.71,15.25-3.3,4.49-.59,8.93-.89,13.34-.89,37.27,0,55.91,17.2,55.91,51.59v48.28c0,3.73,1.86,5.59,5.59,5.59h10.17v27.19h-28.97c-5.59,0-9.74-1.31-12.45-3.94-2.71-2.62-4.07-6.06-4.07-10.29l.26-5.59h-.51c-.34.68-.76,1.52-1.27,2.54-.51,1.01-1.86,2.84-4.06,5.46-2.2,2.63-4.66,4.96-7.37,6.99-2.71,2.03-6.44,3.86-11.18,5.46-4.74,1.61-9.83,2.42-15.25,2.42-12.2,0-22.62-3.64-31.26-10.93-8.64-7.28-12.96-17.11-12.96-29.48,0-6.44,1.35-12.2,4.07-17.28ZM504.65,226.21c12.87-13.13,30.07-19.69,51.59-19.69,6.61,0,13.22.81,19.82,2.41,6.61,1.61,12.79,4.75,18.55,9.4,5.76,4.66,8.64,10.46,8.64,17.41v15.25h-28.46v-7.12c0-3.22-1.95-5.72-5.84-7.5-3.9-1.78-8.13-2.67-12.71-2.67-11.18,0-20.37,3.81-27.57,11.44-7.2,7.62-10.8,17.28-10.8,28.97,0,12.54,3.94,22.32,11.82,29.35,7.88,7.03,17.41,10.54,28.59,10.54,6.61,0,13.09-1.48,19.44-4.45,6.35-2.96,11.14-5.89,14.36-8.77l4.57-4.32,13.47,22.36c-.51.68-1.27,1.52-2.29,2.54s-3.26,2.89-6.74,5.59c-3.47,2.71-7.16,5.08-11.05,7.12-3.9,2.03-8.98,3.9-15.25,5.59-6.27,1.69-12.71,2.54-19.31,2.54-20.84,0-37.74-6.48-50.7-19.44-12.96-12.96-19.44-29.1-19.44-48.41s6.44-35.03,19.31-48.16ZM444.3,295.34c-4.66-2.8-10.34-5.46-17.03-8.01-6.69-2.54-13.43-5.47-20.2-8.77-6.78-3.3-12.5-7.88-17.15-13.72-4.66-5.85-6.99-12.66-6.99-20.46,0-12.37,4.78-21.77,14.36-28.21,9.57-6.44,21.56-9.66,35.96-9.66,4.91,0,9.78.43,14.61,1.27,4.83.85,9.66,2.25,14.49,4.19,4.83,1.95,8.77,4.79,11.82,8.51,3.05,3.73,4.57,8.05,4.57,12.96v13.47h-28.46v-6.35c0-2.88-1.69-5.12-5.08-6.74-3.39-1.61-7.12-2.41-11.18-2.41-5.93,0-10.64,1.02-14.1,3.05-3.47,2.03-5.21,4.92-5.21,8.64s2.37,6.99,7.12,9.78c4.74,2.8,10.5,5.38,17.28,7.75,6.77,2.37,13.51,5.08,20.2,8.13,6.69,3.05,12.41,7.46,17.15,13.21,4.74,5.76,7.12,12.62,7.12,20.58,0,12.03-4.7,21.65-14.1,28.84-9.4,7.2-21.31,10.8-35.71,10.8-10.51,0-20.25-1.95-29.23-5.84-8.98-3.89-15.34-7.71-19.06-11.44l-5.59-5.85,15.25-21.09c1.18,1.36,2.92,3.09,5.21,5.21,2.29,2.12,6.78,4.96,13.47,8.52,6.69,3.56,13.34,5.34,19.95,5.34,5.25,0,9.49-1.06,12.71-3.18,3.22-2.11,4.83-5.29,4.83-9.53,0-3.22-2.33-6.23-6.99-9.02Z"/>
  <path class="st0" d="M260.93,345.03c5.92,0,11.71-.72,17.39-2.16,5.67-1.44,10.32-3.01,13.93-4.7,3.61-1.69,7.11-3.64,10.48-5.84,3.37-2.2,5.55-3.77,6.54-4.7.99-.93,1.73-1.65,2.22-2.16l-13.07-22.36-4.44,3.56c-2.8,2.37-7.15,4.79-13.07,7.24-5.92,2.46-11.84,3.69-17.76,3.69-9.86,0-18.33-3.05-25.4-9.15-7.07-6.1-11.18-14.65-12.33-25.67h86.81l.74-11.94c0-17.79-4.93-32.49-14.8-44.09-9.86-11.6-23.51-17.41-40.94-17.41-18.91,0-34.28,6.31-46.12,18.93-11.84,12.62-17.76,28.93-17.76,48.92s6.2,35.03,18.62,48.16c12.41,13.13,28.73,19.7,48.95,19.7ZM237.13,241.22c5.34-4.66,12.04-6.99,20.1-6.99,6.57,0,12.12,2.46,16.65,7.37,4.52,4.92,6.86,11.18,7.03,18.81h-54.5c1.81-8.13,5.38-14.53,10.73-19.19Z"/>
  <path class="st0" d="M25.52,244.4l26.07,97.59h30.77l18.37-73.95c1.14-4.57,2.06-9.23,2.78-13.98h.43l2.56,13.98,18.59,73.95h30.55l26.07-97.59c.99-3.05,2.99-4.57,5.98-4.57h2.99v-27.45h-18.59c-4.56,0-8.01.98-10.36,2.92-2.35,1.95-4.03,5.38-5.02,10.29l-15.81,71.92c-1,4.57-1.71,9.15-2.14,13.72h-.43l-2.35-13.72-20.3-84.62h-23.93l-20.08,84.62c-1.14,4.57-2,9.15-2.56,13.72h-.43l-2.14-13.72-16.02-71.92c-1-4.91-2.67-8.34-5.02-10.29-2.35-1.95-5.81-2.92-10.36-2.92h-18.59v27.45h2.99c3.13,0,5.13,1.52,5.98,4.57Z"/>
</svg>